<svg version="1.1" viewBox="0.0 0.0 960.0 960.0" fill="none" stroke="none" stroke-linecap="square" stroke-miterlimit="10" xmlns:xlink="http://www.w3.org/1999/xlink" xmlns="http://www.w3.org/2000/svg"><clipPath id="p.0"><path d="m0 0l960.0 0l0 960.0l-960.0 0l0 -960.0z" clip-rule="nonzero"/></clipPath><g clip-path="url(#p.0)"><path fill="#000000" fill-opacity="0.0" d="m0 0l960.0 0l0 960.0l-960.0 0z" fill-rule="evenodd"/><path fill="#666666" d="m0 0l960.0 0l0 960.0l-960.0 0z" fill-rule="evenodd"/><path fill="#cccccc" d="m73.22835 1047.1575l0 0c0 -253.41608 182.11787 -458.8504 406.77167 -458.8504l0 0c107.88257 0 211.3465 48.343018 287.63098 134.39417c76.284485 86.05115 119.140686 202.76154 119.140686 324.45624l0 0c0 253.41614 -182.11786 458.85046 -406.77167 458.85046l0 0c-224.65378 0 -406.77167 -205.43433 -406.77167 -458.85046z" fill-rule="evenodd"/><path fill="#cccccc" d="m288.0 340.3071l0 0c0 -106.03868 85.961334 -192.00002 192.0 -192.00002l0 0c50.92157 0 99.75751 20.228516 135.76453 56.235504c36.006958 36.00699 56.235474 84.84294 56.235474 135.76451l0 0c0 106.038666 -85.9613 191.99997 -192.0 191.99997l0 0c-106.038666 0 -192.0 -85.9613 -192.0 -191.99997z" fill-rule="evenodd"/></g></svg>